# xmcd
#
# Track frame offsets: 
#        150
#        16895
#        43292
#        54723
#        93625
#        112783
#        131573
#        148495
#        168083
#        187263
#
# Disc length: 2672 seconds
#
# Revision: 0
# Processed by: cddbd v1.5.2PL0 Copyright (c) Steve Scherf et al.
# Submitted via: ExactAudioCopy v1.2
#
DISCID=910a6e0a
DTITLE=Tom Trashmouth Baker - One Man's Trash
DYEAR=2017
DGENRE=Blues
TTITLE0=Shut Up and Drive
TTITLE1=Little Blue Diamond
TTITLE2=Slick Buck and Satch
TTITLE3=No More Excuses
TTITLE4=Manufactured Woman
TTITLE5=Bad Part of Town
TTITLE6=What Good Is It
TTITLE7=Deviant
TTITLE8=Anna Lee
TTITLE9=Kansas Citys Burnin'
EXTD=
EXTT0=
EXTT1=
EXTT2=
EXTT3=
EXTT4=
EXTT5=
EXTT6=
EXTT7=
EXTT8=
EXTT9=
PLAYORDER=
